<?xml version="1.0" encoding="utf-8"?>
<!-- Generator: Adobe Illustrator 23.0.1, SVG Export Plug-In . SVG Version: 6.00 Build 0)  -->
<svg version="1.1" id="Layer_1" xmlns="http://www.w3.org/2000/svg" xmlns:xlink="http://www.w3.org/1999/xlink" x="0px" y="0px"
	 viewBox="0 0 3000 3000" style="enable-background:new 0 0 3000 3000;" xml:space="preserve">
<style type="text/css">
	.st0{fill:#686868;}
	.st1{fill:#424242;}
	.st2{fill:#565656;}
	.st3{fill:#FFFFFF;}
	.st4{fill:url(#SVGID_1_);}
	.st5{fill:url(#SVGID_2_);}
</style>
<g>
	<g>
		<path class="st0" d="M595.8,39.8c-94.3,0-171.5,76.8-171.5,170.7v2390c0,93.9,77.2,170.7,171.5,170.7h1714.8
			c94.3,0,171.5-76.8,171.5-170.7V722.7L1796.1,39.8H595.8z"/>
		<path class="st1" d="M1967.6,722.7H2482L1796.1,39.8V552C1796.1,645.9,1873.3,722.7,1967.6,722.7z"/>
		<polygon class="st2" points="2482,1234.8 1967.6,722.7 2482,722.7 		"/>
		<g>
			<ellipse class="st3" cx="2263.9" cy="2497.5" rx="424" ry="422.1"/>
			
				<linearGradient id="SVGID_1_" gradientUnits="userSpaceOnUse" x1="864.5583" y1="2040.463" x2="874.0781" y2="3139.9954" gradientTransform="matrix(-1 0 0 1 3131.8413 0)">
				<stop  offset="0" style="stop-color:#FFAC48"/>
				<stop  offset="1" style="stop-color:#F47400"/>
			</linearGradient>
			<path class="st4" d="M1799.1,2498.1c0,255.1,208,462.1,464.2,462.1s464.2-207,464.2-462.1s-208-462.1-464.2-462.1
				S1799.1,2243,1799.1,2498.1z M2459.2,2498.1l-117.9-117.4c-23.2-24-23.2-61.9,0-85c24.1-23.1,62.2-23.1,85.4,0l160.6,159.9
				c23.2,24,23.2,61.9,0,85l-160.6,159.9c-12.1,12-26.9,17.6-42.7,17.6c-15.8,0-30.6-5.5-42.7-17.6c-23.2-24-23.2-61.9,0-85
				L2459.2,2498.1z M1940.3,2455.6l160.6-159.9c24.1-23.1,62.2-23.1,85.4,0c23.2,24,23.2,61.9,0,85l-117.9,117.4l117.9,117.4
				c23.2,24,23.2,61.9,0,85c-12.1,12-26.9,17.6-42.7,17.6c-15.8,0-30.6-5.5-42.7-17.6l-160.6-159.9
				C1917,2516.6,1917,2479.6,1940.3,2455.6z"/>
		</g>
		<g>
			<g>
				<path class="st2" d="M1579.9,1801.1H273.4l41.9,68.5h1264.7c37.8,0,68.8-30.8,68.8-68.5v-68.5
					C1648.7,1770.3,1617.8,1801.1,1579.9,1801.1z"/>
				<linearGradient id="SVGID_2_" gradientUnits="userSpaceOnUse" x1="1132.4943" y1="1015.8263" x2="1038.1709" y2="1953.1644">
					<stop  offset="0" style="stop-color:#FFAC48"/>
					<stop  offset="1" style="stop-color:#F47400"/>
				</linearGradient>
				<path class="st5" d="M1923.3,1732.6c0,37.7-30.9,68.5-68.8,68.5H272.9V979.5h1581.6c37.8,0,68.8,30.8,68.8,68.5V1732.6z"/>
				<g>
					<path class="st3" d="M572.6,1249.8c0-18.1,14.3-37.8,37.3-37.8h127c71.5,0,135.9,47.6,135.9,139c0,86.5-64.4,134.7-135.9,134.7
						h-91.8v72.3c0,24.1-15.4,37.7-35.2,37.7c-18.2,0-37.3-13.6-37.3-37.7V1249.8z M645.2,1280.9v136.4H737c36.9,0,66-32.4,66-66.3
						c0-38.3-29.2-70-66-70H645.2z"/>
					<path class="st3" d="M980.6,1595.7c-18.2,0-38-9.9-38-33.9v-310.9c0-19.6,19.8-34,38-34h125.9c251.3,0,245.8,378.8,5,378.8
						H980.6z M1015.2,1283.7v245.2h91.3c148.5,0,155.1-245.2,0-245.2L1015.2,1283.7L1015.2,1283.7z"/>
					<path class="st3" d="M1441.4,1288.1v87h140.2c19.8,0,39.6,19.7,39.6,38.8c0,18.1-19.8,32.9-39.6,32.9h-140.2v114.9
						c0,19.2-13.7,33.9-32.9,33.9c-24.2,0-39-14.7-39-33.9v-310.9c0-19.6,14.9-34,39-34h193c24.2,0,38.5,14.3,38.5,34
						c0,17.5-14.3,37.2-38.5,37.2L1441.4,1288.1L1441.4,1288.1z"/>
				</g>
			</g>
			<polygon class="st2" points="272.5,980.1 426.4,826.9 426.4,979.5 			"/>
		</g>
	</g>
</g>
</svg>
