<?xml version="1.0" encoding="utf-8"?>
<!-- Generator: Adobe Illustrator 23.0.1, SVG Export Plug-In . SVG Version: 6.00 Build 0)  -->
<svg version="1.1" id="Layer_1" xmlns="http://www.w3.org/2000/svg" xmlns:xlink="http://www.w3.org/1999/xlink" x="0px" y="0px"
	 viewBox="0 0 3000 3000" style="enable-background:new 0 0 3000 3000;" xml:space="preserve">
<style type="text/css">
	.st0{fill-rule:evenodd;clip-rule:evenodd;fill:#F47400;}
	.st1{fill-rule:evenodd;clip-rule:evenodd;fill:#FFAC48;}
	.st2{fill:#E2E5E7;}
	.st3{fill:#B0B7BD;}
	.st4{fill:#CAD1D8;}
	.st5{fill:#FFFFFF;}
	.st6{fill:url(#SVGID_1_);}
	.st7{fill:url(#SVGID_2_);}
	.st8{fill:#686868;}
	.st9{fill:#424242;}
	.st10{fill:#565656;}
	.st11{fill:url(#SVGID_3_);}
	.st12{fill:url(#SVGID_4_);}
</style>
<g>
	<path class="st2" d="M599.8,39.8c-93.9,0-170.7,76.8-170.7,170.7v2390c0,93.9,76.8,170.7,170.7,170.7h1707.1
		c93.9,0,170.7-76.8,170.7-170.7V722.7L1794.8,39.8H599.8z"/>
	<path class="st3" d="M1965.5,722.7h512.1L1794.8,39.8V552C1794.8,645.9,1871.6,722.7,1965.5,722.7z"/>
	<polygon class="st4" points="2477.7,1234.8 1965.5,722.7 2477.7,722.7 	"/>
	<g>
		<circle class="st5" cx="2260.5" cy="2497.5" r="422.1"/>
		
			<linearGradient id="SVGID_1_" gradientUnits="userSpaceOnUse" x1="3643.9607" y1="2040.4517" x2="3653.4802" y2="3139.9604" gradientTransform="matrix(-1 0 0 1 5907.8413 0)">
			<stop  offset="0" style="stop-color:#FFAC48"/>
			<stop  offset="1" style="stop-color:#F47400"/>
		</linearGradient>
		<path class="st6" d="M1797.8,2498.1c0,255.1,207,462.1,462.1,462.1s462.1-207,462.1-462.1s-207-462.1-462.1-462.1
			S1797.8,2243,1797.8,2498.1z M2454.9,2498.1l-117.4-117.4c-23.1-24-23.1-61.9,0-85c24-23.1,61.9-23.1,85,0l159.9,159.9
			c23.1,24,23.1,61.9,0,85l-159.9,159.9c-12,12-26.8,17.6-42.5,17.6c-15.7,0-30.5-5.5-42.5-17.6c-23.1-24-23.1-61.9,0-85
			L2454.9,2498.1z M1938.3,2455.5l159.9-159.9c24-23.1,61.9-23.1,85,0c23.1,24,23.1,61.9,0,85l-117.4,117.4l117.4,117.4
			c23.1,24,23.1,61.9,0,85c-12,12-26.8,17.6-42.5,17.6c-15.7,0-30.5-5.5-42.5-17.6l-159.9-159.9
			C1915.2,2516.5,1915.2,2479.6,1938.3,2455.5z"/>
	</g>
	<g>
		<g>
			<path class="st4" d="M1579.6,1801.1H278.9l41.7,68.5h1259c37.7,0,68.5-30.8,68.5-68.5v-68.5
				C1648,1770.3,1617.2,1801.1,1579.6,1801.1z"/>
			<linearGradient id="SVGID_2_" gradientUnits="userSpaceOnUse" x1="1134.2596" y1="1016.0957" x2="1040.0065" y2="1952.7366">
				<stop  offset="0" style="stop-color:#FFAC48"/>
				<stop  offset="1" style="stop-color:#F47400"/>
			</linearGradient>
			<path class="st7" d="M1921.4,1732.6c0,37.7-30.8,68.5-68.5,68.5H278.4V979.6h1574.6c37.7,0,68.5,30.8,68.5,68.5V1732.6z"/>
			<g>
				<path class="st5" d="M576.8,1249.8c0-18.1,14.2-37.8,37.2-37.8h126.4c71.2,0,135.3,47.6,135.3,139
					c0,86.5-64.1,134.7-135.3,134.7H649v72.3c0,24.1-15.3,37.7-35.1,37.7c-18.1,0-37.2-13.6-37.2-37.7V1249.8z M649,1280.9v136.4
					h91.4c36.7,0,65.7-32.4,65.7-66.3c0-38.3-29-70-65.7-70H649z"/>
				<path class="st5" d="M982.9,1595.7c-18.1,0-37.8-9.9-37.8-33.9v-310.9c0-19.6,19.7-34,37.8-34h125.3
					c250.1,0,244.7,378.8,4.9,378.8H982.9z M1017.4,1283.7v245.2h90.8c147.8,0,154.4-245.2,0-245.2L1017.4,1283.7L1017.4,1283.7z"/>
				<path class="st5" d="M1441.6,1288.1v87h139.6c19.7,0,39.4,19.7,39.4,38.8c0,18.1-19.7,32.9-39.4,32.9h-139.6v114.9
					c0,19.2-13.6,33.9-32.8,33.9c-24.1,0-38.8-14.7-38.8-33.9v-310.9c0-19.6,14.8-34,38.8-34H1601c24.1,0,38.3,14.3,38.3,34
					c0,17.5-14.2,37.2-38.3,37.2L1441.6,1288.1L1441.6,1288.1z"/>
			</g>
		</g>
		<polygon class="st4" points="278,980.1 431.2,826.9 431.2,979.6 		"/>
	</g>
</g>
</svg>
